<?xml version="1.0" encoding="utf-8"?>
<!-- Generator: Adobe Illustrator 24.1.0, SVG Export Plug-In . SVG Version: 6.00 Build 0)  -->
<svg version="1.1" id="Layer_1" xmlns="http://www.w3.org/2000/svg" xmlns:xlink="http://www.w3.org/1999/xlink" x="0px" y="0px"
	 viewBox="0 0 252 144" style="enable-background:new 0 0 252 144;" xml:space="preserve">
<style type="text/css">
	.st0{fill:#F16522;}
	.st1{fill:#231F20;}
</style>
<g>
	<g>
		<path class="st0" d="M102.5,35.2h-7.2v7.1h7.2V35.2z M113.5,34.3h-2.1l0.1,2.9l-2.5-1.6l-1,1.7l2.6,1.5l-2.6,1.5l1,1.7l2.5-1.5
			l-0.1,2.9h2.1l-0.1-2.9l2.5,1.5l1-1.7l-2.6-1.5l2.6-1.5l-1-1.7l-2.5,1.6L113.5,34.3z M108.9,89.9h7.2V47.2h-7.2V89.9z M58.6,82.7
			c3.8,6.1,10.1,8.4,15.7,8.4c8,0,15.9-3.4,15.9-13.4c0-6.5-4.3-10-13.1-12.8c-5.2-1.7-9.9-3.2-9.9-7c0-3.3,2.8-5.4,7.2-5.4
			c3.9,0,7,1.7,9.3,4.9l5.5-3.9c-2.5-3.9-7.6-7.2-15-7.2c-8.8,0-14.2,5.1-14.2,12.1c0,7.1,5.3,9.9,14.4,12.9
			c5.5,1.8,8.5,3.3,8.5,7.4c0,3.3-2.8,6.1-8.4,6.1c-4.7,0-8.7-3.2-10.8-6.4L58.6,82.7z M88.8,107.4c10-2.3,13.7-6.3,13.7-16.8
			l0-43.4h-7.2v42.4c0,8.4-1.5,9.9-9.2,11.8L88.8,107.4z"/>
	</g>
</g>
<g>
	<path class="st1" d="M123.4,70.3l0.9-0.8c0.8,0.9,1.8,1.5,3.3,1.5c1.8,0,2.7-0.7,2.7-1.8c0-1.2-0.8-1.6-2.9-2.1
		c-2.4-0.6-3.7-1.2-3.7-3.1c0-1.5,1.3-2.8,3.6-2.8c1.8,0,3,0.6,3.9,1.5l-0.8,0.9c-0.8-0.8-1.8-1.3-3.1-1.3c-1.6,0-2.3,0.8-2.3,1.6
		c0,1,0.7,1.4,2.6,1.9c2.6,0.6,4,1.3,4,3.3c0,1.9-1.7,3-4.1,3C125.7,72.1,124.2,71.3,123.4,70.3z"/>
	<path class="st1" d="M134.5,69.5v-6.9h-1.8v-1.2h1.8v-3.8h1.4v3.8h2.7v1.2h-2.7v6.6c0,1.1,0.4,1.7,1.7,1.7c0.4,0,0.8,0,1.1-0.1V72
		c-0.3,0.1-0.9,0.1-1.4,0.1C135.2,72.1,134.5,71.3,134.5,69.5z"/>
	<path class="st1" d="M140.3,61.4h1.4v2.1h0c0.8-1.3,2.1-2.3,4.2-2.3h0.2l-0.1,1.3c0,0-0.4,0-0.4,0c-1.7,0-3.1,1-3.9,2.6v6.9h-1.4
		V61.4z"/>
	<path class="st1" d="M146.8,69.5c0-2.1,1.8-3.6,7.1-4.4v-0.5c0-1.5-0.8-2.2-2.1-2.2c-1.7,0-2.8,0.7-3.9,1.7l-0.7-0.9
		c1.3-1.2,2.7-2,4.8-2c2.4,0,3.4,1.3,3.4,3.4v4.8c0,1.3,0.1,2.1,0.3,2.6h-1.4c-0.1-0.4-0.2-0.9-0.2-1.5c-1.2,1.1-2.6,1.7-4.2,1.7
		C147.9,72.1,146.8,71.1,146.8,69.5z M154,69.3V66c-4.5,0.8-5.8,1.9-5.8,3.3c0,1.1,0.7,1.7,1.9,1.7C151.6,71,152.9,70.4,154,69.3z"
		/>
	<path class="st1" d="M158.4,69.5v-6.9h-1.8v-1.2h1.8v-3.8h1.4v3.8h2.7v1.2h-2.7v6.6c0,1.1,0.4,1.7,1.7,1.7c0.4,0,0.8,0,1.1-0.1V72
		c-0.3,0.1-0.9,0.1-1.4,0.1C159.2,72.1,158.4,71.3,158.4,69.5z"/>
	<path class="st1" d="M163.3,66.7c0-3.7,2.4-5.5,4.6-5.5c2.5,0,4.3,1.9,4.3,5.5v0.3h-7.5c0,2.6,1.5,4.1,3.3,4.1
		c1.6,0,2.5-0.7,3.3-1.9l0.9,0.7c-0.9,1.5-2.2,2.4-4.2,2.4C165.5,72.2,163.3,70.3,163.3,66.7z M170.9,65.8c-0.1-2-1.1-3.5-3-3.5
		c-1.5,0-2.9,1.1-3.2,3.5H170.9z"/>
	<path class="st1" d="M173,73.3c0-1.1,0.7-1.9,1.9-2.4c-0.6-0.3-0.9-0.7-0.9-1.3c0-0.6,0.5-1.2,1.3-1.6c-1-0.6-1.6-1.7-1.6-3
		c0-2.2,1.8-3.8,4.2-3.8c1.2,0,2.3,0.4,3,1.1c0.6-0.5,1.6-0.9,2.4-1v1.3c-0.6,0-1.3,0.1-1.9,0.4c0.4,0.5,0.6,1.2,0.6,2
		c0,2.3-1.8,3.7-4.1,3.7c-0.6,0-1.2-0.1-1.7-0.3c-0.5,0.2-0.8,0.5-0.8,0.9c0,0.4,0.4,0.7,1.6,0.8l2.3,0.2c2.4,0.2,3.7,1,3.7,2.7
		c0,1.9-2,3-4.9,3C174.6,76,173,75,173,73.3z M181.6,73.1c0-1-0.8-1.5-2.9-1.7l-2.1-0.2l-0.5-0.1c-1.2,0.4-1.8,1.1-1.8,1.9
		c0,1.1,1.2,1.7,3.8,1.7C180.3,74.9,181.6,74.2,181.6,73.1z M180.7,65c0-1.7-1-2.7-2.8-2.7c-1.7,0-2.8,1.1-2.8,2.7
		c0,1.6,1.1,2.7,2.8,2.7C179.6,67.7,180.7,66.6,180.7,65z"/>
	<path class="st1" d="M184.9,57.5h1.5V59h-1.5V57.5z M184.9,61.4h1.4v10.5h-1.4V61.4z"/>
	<path class="st1" d="M188.3,66.7c0-3.8,2.3-5.5,4.7-5.5c2.3,0,3.4,1.3,4,2.9l-1.2,0.5c-0.6-1.4-1.4-2.2-2.9-2.2
		c-1.6,0-3.3,1.1-3.3,4.3c0,2.8,1.4,4.3,3.2,4.3c1.5,0,2.3-0.7,3-2.2l1.1,0.5c-0.8,1.8-2.1,2.9-4.2,2.9
		C190.4,72.2,188.3,70.2,188.3,66.7z"/>
	<path class="st1" d="M123.6,84.7c0-3.8,2.3-5.5,4.7-5.5c2.3,0,3.4,1.3,4,2.9l-1.2,0.5c-0.6-1.4-1.4-2.2-2.9-2.2
		c-1.6,0-3.3,1.1-3.3,4.3c0,2.8,1.4,4.3,3.2,4.3c1.5,0,2.3-0.7,3-2.2l1.1,0.5c-0.8,1.8-2.1,2.9-4.2,2.9
		C125.7,90.2,123.6,88.2,123.6,84.7z"/>
	<path class="st1" d="M134.1,79.4h1.4v2.1h0c0.8-1.3,2.1-2.3,4.2-2.3h0.2l-0.1,1.3c0,0-0.4,0-0.4,0c-1.7,0-3.1,1-3.9,2.6v6.9h-1.4
		V79.4z"/>
	<path class="st1" d="M140.4,84.7c0-3.7,2.4-5.5,4.6-5.5c2.5,0,4.3,1.9,4.3,5.5v0.3h-7.5c0,2.6,1.5,4.1,3.3,4.1
		c1.6,0,2.5-0.7,3.3-1.9l0.9,0.7c-0.9,1.5-2.2,2.4-4.2,2.4C142.5,90.2,140.4,88.3,140.4,84.7z M148,83.8c-0.1-2-1.1-3.5-3-3.5
		c-1.5,0-2.9,1.1-3.2,3.5H148z"/>
	<path class="st1" d="M150.7,87.5c0-2.1,1.8-3.6,7.1-4.4v-0.5c0-1.5-0.8-2.2-2.1-2.2c-1.7,0-2.8,0.7-3.9,1.7l-0.7-0.9
		c1.3-1.2,2.7-2,4.8-2c2.4,0,3.4,1.3,3.4,3.4v4.8c0,1.3,0.1,2.1,0.3,2.6h-1.4c-0.1-0.4-0.2-0.9-0.2-1.5c-1.2,1.1-2.6,1.7-4.2,1.7
		C151.8,90.1,150.7,89.1,150.7,87.5z M157.8,87.3V84c-4.5,0.8-5.8,1.9-5.8,3.3c0,1.1,0.7,1.7,1.9,1.7
		C155.4,89,156.7,88.4,157.8,87.3z"/>
	<path class="st1" d="M162.3,87.5v-6.9h-1.8v-1.2h1.8v-3.8h1.4v3.8h2.7v1.2h-2.7v6.6c0,1.1,0.4,1.7,1.7,1.7c0.4,0,0.8,0,1.1-0.1V90
		c-0.3,0.1-0.9,0.1-1.4,0.1C163,90.1,162.3,89.3,162.3,87.5z"/>
	<path class="st1" d="M168.1,75.5h1.5V77h-1.5V75.5z M168.1,79.4h1.4v10.5h-1.4V79.4z"/>
	<path class="st1" d="M171,79.4h1.5l3.1,8.9h0l3.1-8.9h1.4L176.3,90h-1.4L171,79.4z"/>
	<path class="st1" d="M180.7,84.7c0-3.7,2.4-5.5,4.6-5.5c2.5,0,4.3,1.9,4.3,5.5v0.3h-7.5c0,2.6,1.5,4.1,3.3,4.1
		c1.6,0,2.5-0.7,3.3-1.9l0.9,0.7c-0.9,1.5-2.2,2.4-4.2,2.4C182.9,90.2,180.7,88.3,180.7,84.7z M188.3,83.8c-0.1-2-1.1-3.5-3-3.5
		c-1.5,0-2.9,1.1-3.2,3.5H188.3z"/>
</g>
</svg>
